<svg width="38" height="31" viewBox="0 0 38 31" fill="none" xmlns="http://www.w3.org/2000/svg">
<path d="M4.99496 30.3294H32.3964C35.7044 30.3294 37.3906 28.6751 37.3906 25.3989V8.74746C37.3906 5.47132 35.7044 3.83325 32.3964 3.83325H28.6751C27.4346 3.83325 27.0533 3.57879 26.3374 2.7835L25.0488 1.35171C24.2698 0.477714 23.4589 0 21.8045 0H15.4748C13.8368 0 13.0252 0.477714 12.2306 1.35171L10.942 2.7835C10.2424 3.5625 9.84471 3.83325 8.60429 3.83325H4.99429C1.68625 3.83325 0 5.47132 0 8.74746V25.3989C0 28.6751 1.68693 30.3294 4.99496 30.3294ZM18.6879 25.2401C13.8842 25.2401 10.0198 21.375 10.0198 16.5409C10.0198 11.7054 13.8842 7.84157 18.6872 7.84157C23.522 7.84157 27.3709 11.7054 27.3709 16.5409C27.3709 21.375 23.5064 25.2401 18.6872 25.2401M30.1218 12.6594C29.0401 12.6594 28.1499 11.7854 28.1499 10.7038C28.1499 10.1808 28.3576 9.67923 28.7274 9.30942C29.0972 8.93961 29.5988 8.73186 30.1218 8.73186C30.6448 8.73186 31.1463 8.93961 31.5161 9.30942C31.886 9.67923 32.0937 10.1808 32.0937 10.7038C32.0937 11.7854 31.2034 12.6594 30.1218 12.6594ZM18.6879 22.8231C19.5131 22.8241 20.3305 22.6622 21.0931 22.3469C21.8558 22.0315 22.5487 21.5688 23.1322 20.9852C23.7158 20.4017 24.1785 19.7088 24.4939 18.9461C24.8092 18.1835 24.9711 17.3661 24.9701 16.5409C24.971 15.7156 24.8091 14.8984 24.4937 14.1358C24.1783 13.3732 23.7155 12.6804 23.132 12.0969C22.5485 11.5134 21.8556 11.0508 21.093 10.7355C20.3304 10.4201 19.5131 10.2583 18.6879 10.2593C15.2204 10.2593 12.4219 13.0584 12.4219 16.5409C12.4219 20.024 15.2366 22.8231 18.6879 22.8231Z" fill="white"/>
</svg>
