<svg width="30" height="29" viewBox="0 0 30 29" fill="none" xmlns="http://www.w3.org/2000/svg">
<path d="M14.999 0.5C15.2221 0.5 15.4508 0.560889 15.6904 0.699219C15.843 0.787365 15.9686 0.908875 16.0674 1.07422L16.1582 1.25586L19.4434 9.14746L19.5596 9.42676L19.8613 9.45312L28.335 10.2041C28.6757 10.2539 28.8953 10.3586 29.0352 10.4824C29.1993 10.6278 29.3294 10.8206 29.4209 11.0752C29.506 11.3121 29.523 11.5505 29.4697 11.8008C29.4225 12.0225 29.303 12.2332 29.0811 12.4355L22.6416 18.0664L22.417 18.2637L22.4844 18.5547L24.4111 26.9336C24.4776 27.2255 24.4501 27.4571 24.3584 27.6523C24.2447 27.8944 24.0889 28.0901 23.8896 28.2461C23.7073 28.3888 23.4937 28.4733 23.2344 28.4961C23.0049 28.5162 22.7785 28.4618 22.542 28.3086L22.5303 28.3008L15.2598 23.8682L14.999 23.709L14.7393 23.8682L7.46777 28.3008L7.45703 28.3076C7.22017 28.4601 6.99334 28.5155 6.7627 28.4961C6.50449 28.4743 6.29224 28.3893 6.11035 28.2461C5.91003 28.0884 5.75337 27.8926 5.63965 27.6514C5.54843 27.4578 5.52008 27.2257 5.58691 26.9316L7.51465 18.5547L7.58203 18.2637L7.35645 18.0664L0.917969 12.4355C0.697335 12.2323 0.578554 12.0209 0.53125 11.7988C0.47788 11.5479 0.493126 11.3097 0.577148 11.0742C0.667238 10.8219 0.798134 10.6293 0.963867 10.4824C1.10471 10.3576 1.32318 10.2538 1.66016 10.2051L10.1377 9.45312L10.4385 9.42676L10.5547 9.14746L13.8398 1.25586L13.9307 1.07422C14.0296 0.908664 14.1558 0.787416 14.3086 0.699219C14.5481 0.560973 14.7761 0.500042 14.999 0.5Z" fill="#FFDE7D" stroke="#FFBE84"/>
</svg>
